<svg width="138" height="32" viewBox="0 0 138 32" fill="none" xmlns="http://www.w3.org/2000/svg">
<path d="M95.4521 14.0439V17.0146H85.8037V14.0439H95.4521ZM86.9336 6.51562V25H83.125V6.51562H86.9336ZM98.1689 6.51562V25H94.373V6.51562H98.1689ZM107.576 25.2539C106.51 25.2539 105.553 25.0846 104.707 24.7461C103.861 24.3991 103.141 23.9209 102.549 23.3115C101.965 22.7021 101.516 21.9954 101.203 21.1914C100.89 20.3789 100.733 19.5156 100.733 18.6016V18.0938C100.733 17.0527 100.882 16.1006 101.178 15.2373C101.474 14.374 101.897 13.625 102.447 12.9902C103.006 12.3555 103.683 11.8688 104.479 11.5303C105.274 11.1833 106.171 11.0098 107.17 11.0098C108.143 11.0098 109.007 11.1706 109.76 11.4922C110.513 11.8138 111.144 12.2708 111.651 12.8633C112.168 13.4557 112.557 14.1667 112.819 14.9961C113.082 15.8171 113.213 16.7311 113.213 17.7383V19.2617H102.295V16.8242H109.62V16.5449C109.62 16.0371 109.527 15.5843 109.341 15.1865C109.163 14.7803 108.892 14.4587 108.528 14.2217C108.164 13.9847 107.699 13.8662 107.132 13.8662C106.649 13.8662 106.235 13.972 105.888 14.1836C105.541 14.3952 105.257 14.6914 105.037 15.0723C104.826 15.4531 104.665 15.9017 104.555 16.418C104.453 16.9258 104.402 17.4844 104.402 18.0938V18.6016C104.402 19.1517 104.479 19.6595 104.631 20.125C104.792 20.5905 105.016 20.9925 105.304 21.3311C105.6 21.6696 105.955 21.932 106.37 22.1182C106.793 22.3044 107.271 22.3975 107.805 22.3975C108.465 22.3975 109.078 22.2705 109.646 22.0166C110.221 21.7542 110.716 21.3607 111.131 20.8359L112.908 22.7656C112.62 23.1803 112.227 23.5781 111.728 23.959C111.237 24.3398 110.644 24.653 109.95 24.8984C109.256 25.1354 108.465 25.2539 107.576 25.2539ZM118.951 14.2598V25H115.295V11.2637H118.735L118.951 14.2598ZM123.09 11.1748L123.026 14.5645C122.849 14.5391 122.633 14.5179 122.379 14.501C122.133 14.4756 121.909 14.4629 121.706 14.4629C121.19 14.4629 120.741 14.5306 120.36 14.666C119.988 14.793 119.675 14.9834 119.421 15.2373C119.175 15.4912 118.989 15.8001 118.862 16.1641C118.744 16.528 118.676 16.9427 118.659 17.4082L117.923 17.1797C117.923 16.291 118.012 15.4743 118.189 14.7295C118.367 13.9762 118.625 13.3203 118.964 12.7617C119.311 12.2031 119.734 11.7715 120.233 11.4668C120.733 11.1621 121.304 11.0098 121.947 11.0098C122.15 11.0098 122.358 11.0267 122.569 11.0605C122.781 11.0859 122.954 11.124 123.09 11.1748ZM130.885 25.2539C129.818 25.2539 128.862 25.0846 128.016 24.7461C127.169 24.3991 126.45 23.9209 125.857 23.3115C125.273 22.7021 124.825 21.9954 124.512 21.1914C124.199 20.3789 124.042 19.5156 124.042 18.6016V18.0938C124.042 17.0527 124.19 16.1006 124.486 15.2373C124.783 14.374 125.206 13.625 125.756 12.9902C126.314 12.3555 126.992 11.8688 127.787 11.5303C128.583 11.1833 129.48 11.0098 130.479 11.0098C131.452 11.0098 132.315 11.1706 133.068 11.4922C133.822 11.8138 134.452 12.2708 134.96 12.8633C135.476 13.4557 135.866 14.1667 136.128 14.9961C136.39 15.8171 136.521 16.7311 136.521 17.7383V19.2617H125.604V16.8242H132.929V16.5449C132.929 16.0371 132.836 15.5843 132.649 15.1865C132.472 14.7803 132.201 14.4587 131.837 14.2217C131.473 13.9847 131.007 13.8662 130.44 13.8662C129.958 13.8662 129.543 13.972 129.196 14.1836C128.849 14.3952 128.566 14.6914 128.346 15.0723C128.134 15.4531 127.973 15.9017 127.863 16.418C127.762 16.9258 127.711 17.4844 127.711 18.0938V18.6016C127.711 19.1517 127.787 19.6595 127.939 20.125C128.1 20.5905 128.325 20.9925 128.612 21.3311C128.909 21.6696 129.264 21.932 129.679 22.1182C130.102 22.3044 130.58 22.3975 131.113 22.3975C131.773 22.3975 132.387 22.2705 132.954 22.0166C133.53 21.7542 134.025 21.3607 134.439 20.8359L136.217 22.7656C135.929 23.1803 135.535 23.5781 135.036 23.959C134.545 24.3398 133.953 24.653 133.259 24.8984C132.565 25.1354 131.773 25.2539 130.885 25.2539Z" fill="#31CF67"/>
<g filter="url(#filter0_d_1_5)">
<path d="M44.7002 6.51562V25H40.9043V6.51562H44.7002ZM51.3779 5.5V7.42969C51.3779 7.97982 51.2721 8.54688 51.0605 9.13086C50.8574 9.71484 50.5824 10.2692 50.2354 10.7939C49.8883 11.3102 49.5075 11.7503 49.0928 12.1143L47.3789 11.124C47.6921 10.6247 47.9587 10.083 48.1787 9.49902C48.3988 8.90658 48.5088 8.22103 48.5088 7.44238V5.5H51.3779ZM57.4082 14.1074V25H53.7393V11.2637H57.1797L57.4082 14.1074ZM56.9004 17.6494H55.8848C55.8848 16.693 55.999 15.8128 56.2275 15.0088C56.4645 14.1963 56.8073 13.4938 57.2559 12.9014C57.7129 12.3005 58.2757 11.835 58.9443 11.5049C59.613 11.1748 60.3874 11.0098 61.2676 11.0098C61.877 11.0098 62.4355 11.1029 62.9434 11.2891C63.4512 11.4668 63.887 11.7503 64.251 12.1396C64.6234 12.5205 64.9111 13.0199 65.1143 13.6377C65.3174 14.2471 65.4189 14.9792 65.4189 15.834V25H61.7627V16.2402C61.7627 15.6139 61.6781 15.1315 61.5088 14.793C61.3395 14.4544 61.0983 14.2174 60.7852 14.082C60.4805 13.9466 60.1123 13.8789 59.6807 13.8789C59.2067 13.8789 58.792 13.9762 58.4365 14.1709C58.0895 14.3656 57.8018 14.6364 57.5732 14.9834C57.3447 15.3219 57.1755 15.7197 57.0654 16.1768C56.9554 16.6338 56.9004 17.1247 56.9004 17.6494ZM65.0762 17.2305L63.7686 17.3955C63.7686 16.4984 63.8786 15.6647 64.0986 14.8945C64.3271 14.1243 64.6615 13.4473 65.1016 12.8633C65.5501 12.2793 66.1045 11.8265 66.7646 11.5049C67.4248 11.1748 68.1865 11.0098 69.0498 11.0098C69.71 11.0098 70.3109 11.1071 70.8525 11.3018C71.3942 11.488 71.8555 11.7884 72.2363 12.2031C72.6257 12.6094 72.9219 13.1426 73.125 13.8027C73.3366 14.4629 73.4424 15.2712 73.4424 16.2275V25H69.7734V16.2275C69.7734 15.5928 69.6888 15.1104 69.5195 14.7803C69.3587 14.4417 69.1217 14.209 68.8086 14.082C68.5039 13.9466 68.14 13.8789 67.7168 13.8789C67.2767 13.8789 66.8916 13.9678 66.5615 14.1455C66.2314 14.3148 65.9564 14.5518 65.7363 14.8564C65.5163 15.1611 65.3512 15.5166 65.2412 15.9229C65.1312 16.3206 65.0762 16.7565 65.0762 17.2305Z" fill="white"/>
</g>
<path d="M5.5 17.9125V6.5C5.5 6.23478 5.60536 5.98043 5.79289 5.79289C5.98043 5.60536 6.23478 5.5 6.5 5.5H25.5C25.7652 5.5 26.0196 5.60536 26.2071 5.79289C26.3946 5.98043 26.5 6.23478 26.5 6.5V25.5C26.5 25.7652 26.3946 26.0196 26.2071 26.2071C26.0196 26.3946 25.7652 26.5 25.5 26.5H16.95" stroke="#31CF67" stroke-width="3" stroke-linecap="round" stroke-linejoin="round"/>
<path d="M16 19L8 27L4 23" stroke="#31CF67" stroke-width="3" stroke-linecap="round" stroke-linejoin="round"/>
<defs>
<filter id="filter0_d_1_5" x="37.9043" y="2.5" width="38.5381" height="25.5" filterUnits="userSpaceOnUse" color-interpolation-filters="sRGB">
<feFlood flood-opacity="0" result="BackgroundImageFix"/>
<feColorMatrix in="SourceAlpha" type="matrix" values="0 0 0 0 0 0 0 0 0 0 0 0 0 0 0 0 0 0 127 0" result="hardAlpha"/>
<feOffset/>
<feGaussianBlur stdDeviation="1.5"/>
<feComposite in2="hardAlpha" operator="out"/>
<feColorMatrix type="matrix" values="0 0 0 0 0 0 0 0 0 0 0 0 0 0 0 0 0 0 0.8 0"/>
<feBlend mode="normal" in2="BackgroundImageFix" result="effect1_dropShadow_1_5"/>
<feBlend mode="normal" in="SourceGraphic" in2="effect1_dropShadow_1_5" result="shape"/>
</filter>
</defs>
</svg>
